<mxfile host="65bd71144e">
    <diagram name="ページ1" id="16POWw2BMLzCoKCeQJE8">
        <mxGraphModel dx="902" dy="549" grid="1" gridSize="10" guides="1" tooltips="1" connect="1" arrows="1" fold="1" page="1" pageScale="1" pageWidth="827" pageHeight="1169" math="0" shadow="0">
            <root>
                <mxCell id="0"/>
                <mxCell id="1" parent="0"/>
                <mxCell id="AjMyWbzP90O-28QECdVB-1" value="ミラーリング" style="swimlane;whiteSpace=wrap;html=1;" parent="1" vertex="1">
                    <mxGeometry x="40" y="40" width="170" height="279.5" as="geometry"/>
                </mxCell>
                <mxCell id="AjMyWbzP90O-28QECdVB-2" value="同じ行動をとる" style="rounded=1;whiteSpace=wrap;html=1;shadow=0;labelBackgroundColor=none;strokeColor=none;strokeWidth=3;fillColor=#F08705;fontFamily=Helvetica;fontSize=14;fontColor=#FFFFFF;align=center;spacing=5;fontStyle=1;arcSize=7;perimeterSpacing=2;" parent="AjMyWbzP90O-28QECdVB-1" vertex="1">
                    <mxGeometry x="10" y="200" width="150" height="73" as="geometry"/>
                </mxCell>
                <mxCell id="AjMyWbzP90O-28QECdVB-3" style="edgeStyle=orthogonalEdgeStyle;rounded=0;orthogonalLoop=1;jettySize=auto;html=1;" parent="AjMyWbzP90O-28QECdVB-1" source="AjMyWbzP90O-28QECdVB-4" target="AjMyWbzP90O-28QECdVB-2" edge="1">
                    <mxGeometry relative="1" as="geometry"/>
                </mxCell>
                <mxCell id="AjMyWbzP90O-28QECdVB-4" value="同じ行動をとる人を&lt;br&gt;無意識に気に入ってしまう心理" style="rounded=1;whiteSpace=wrap;html=1;shadow=0;labelBackgroundColor=none;strokeColor=none;strokeWidth=3;fillColor=#f5af58;fontFamily=Helvetica;fontSize=14;fontColor=#FFFFFF;align=center;spacing=5;arcSize=7;perimeterSpacing=2;" parent="AjMyWbzP90O-28QECdVB-1" vertex="1">
                    <mxGeometry x="10" y="34" width="150" height="148" as="geometry"/>
                </mxCell>
                <mxCell id="AjMyWbzP90O-28QECdVB-5" value="相手の話したい事" style="swimlane;whiteSpace=wrap;html=1;" parent="1" vertex="1">
                    <mxGeometry x="240" y="40" width="170" height="279.5" as="geometry"/>
                </mxCell>
                <mxCell id="AjMyWbzP90O-28QECdVB-6" value="相手が食いつきそうな&lt;br&gt;話題を振る" style="rounded=1;whiteSpace=wrap;html=1;shadow=0;labelBackgroundColor=none;strokeColor=none;strokeWidth=3;fillColor=#F08705;fontFamily=Helvetica;fontSize=14;fontColor=#FFFFFF;align=center;spacing=5;fontStyle=1;arcSize=7;perimeterSpacing=2;" parent="AjMyWbzP90O-28QECdVB-5" vertex="1">
                    <mxGeometry x="10" y="200" width="150" height="73" as="geometry"/>
                </mxCell>
                <mxCell id="AjMyWbzP90O-28QECdVB-7" style="edgeStyle=orthogonalEdgeStyle;rounded=0;orthogonalLoop=1;jettySize=auto;html=1;" parent="AjMyWbzP90O-28QECdVB-5" source="AjMyWbzP90O-28QECdVB-8" target="AjMyWbzP90O-28QECdVB-6" edge="1">
                    <mxGeometry relative="1" as="geometry"/>
                </mxCell>
                <mxCell id="AjMyWbzP90O-28QECdVB-8" value="相手が食いつきそうな話題を振る" style="rounded=1;whiteSpace=wrap;html=1;shadow=0;labelBackgroundColor=none;strokeColor=none;strokeWidth=3;fillColor=#f5af58;fontFamily=Helvetica;fontSize=14;fontColor=#FFFFFF;align=center;spacing=5;arcSize=7;perimeterSpacing=2;" parent="AjMyWbzP90O-28QECdVB-5" vertex="1">
                    <mxGeometry x="10" y="34" width="150" height="148" as="geometry"/>
                </mxCell>
                <mxCell id="AjMyWbzP90O-28QECdVB-9" value="共通点を強調" style="swimlane;whiteSpace=wrap;html=1;" parent="1" vertex="1">
                    <mxGeometry x="440" y="360" width="170" height="279.5" as="geometry"/>
                </mxCell>
                <mxCell id="AjMyWbzP90O-28QECdVB-10" value="共通点を強調" style="rounded=1;whiteSpace=wrap;html=1;shadow=0;labelBackgroundColor=none;strokeColor=none;strokeWidth=3;fillColor=#F08705;fontFamily=Helvetica;fontSize=14;fontColor=#FFFFFF;align=center;spacing=5;fontStyle=1;arcSize=7;perimeterSpacing=2;" parent="AjMyWbzP90O-28QECdVB-9" vertex="1">
                    <mxGeometry x="10" y="200" width="150" height="73" as="geometry"/>
                </mxCell>
                <mxCell id="AjMyWbzP90O-28QECdVB-11" style="edgeStyle=orthogonalEdgeStyle;rounded=0;orthogonalLoop=1;jettySize=auto;html=1;" parent="AjMyWbzP90O-28QECdVB-9" source="AjMyWbzP90O-28QECdVB-12" target="AjMyWbzP90O-28QECdVB-10" edge="1">
                    <mxGeometry relative="1" as="geometry"/>
                </mxCell>
                <mxCell id="AjMyWbzP90O-28QECdVB-12" value="人と人、集団と集団が横並びに置かれるとき、その集団の「差分」が強調されてしまう。&lt;br&gt;そうではなく、「共通項」に着目することで" style="rounded=1;whiteSpace=wrap;html=1;shadow=0;labelBackgroundColor=none;strokeColor=none;strokeWidth=3;fillColor=#f5af58;fontFamily=Helvetica;fontSize=14;fontColor=#FFFFFF;align=center;spacing=5;arcSize=7;perimeterSpacing=2;" parent="AjMyWbzP90O-28QECdVB-9" vertex="1">
                    <mxGeometry x="10" y="34" width="150" height="148" as="geometry"/>
                </mxCell>
                <mxCell id="AjMyWbzP90O-28QECdVB-13" value="素早いレスポンス" style="swimlane;whiteSpace=wrap;html=1;" parent="1" vertex="1">
                    <mxGeometry x="40" y="360" width="370" height="279.5" as="geometry"/>
                </mxCell>
                <mxCell id="AjMyWbzP90O-28QECdVB-14" value="「リアクション」押下" style="rounded=1;whiteSpace=wrap;html=1;shadow=0;labelBackgroundColor=none;strokeColor=none;strokeWidth=3;fillColor=#F08705;fontFamily=Helvetica;fontSize=14;fontColor=#FFFFFF;align=center;spacing=5;fontStyle=1;arcSize=7;perimeterSpacing=2;" parent="AjMyWbzP90O-28QECdVB-13" vertex="1">
                    <mxGeometry x="10" y="210" width="150" height="63" as="geometry"/>
                </mxCell>
                <mxCell id="AjMyWbzP90O-28QECdVB-15" style="edgeStyle=orthogonalEdgeStyle;rounded=0;orthogonalLoop=1;jettySize=auto;html=1;" parent="AjMyWbzP90O-28QECdVB-13" source="AjMyWbzP90O-28QECdVB-16" target="AjMyWbzP90O-28QECdVB-14" edge="1">
                    <mxGeometry relative="1" as="geometry"/>
                </mxCell>
                <mxCell id="AjMyWbzP90O-28QECdVB-16" value="素早いレスポンスは安心感を生む。&lt;br&gt;ネガティブであれ、ポジティブであれ、フィードバックがないよりは遥かにマシ" style="rounded=1;whiteSpace=wrap;html=1;shadow=0;labelBackgroundColor=none;strokeColor=none;strokeWidth=3;fillColor=#f5af58;fontFamily=Helvetica;fontSize=14;fontColor=#FFFFFF;align=center;spacing=5;arcSize=7;perimeterSpacing=2;" parent="AjMyWbzP90O-28QECdVB-13" vertex="1">
                    <mxGeometry x="10" y="34" width="150" height="148" as="geometry"/>
                </mxCell>
                <mxCell id="AjMyWbzP90O-28QECdVB-17" style="edgeStyle=orthogonalEdgeStyle;rounded=0;orthogonalLoop=1;jettySize=auto;html=1;" parent="AjMyWbzP90O-28QECdVB-13" source="AjMyWbzP90O-28QECdVB-18" target="AjMyWbzP90O-28QECdVB-19" edge="1">
                    <mxGeometry relative="1" as="geometry"/>
                </mxCell>
                <UserObject label="「無言」を選択することで&lt;br style=&quot;border-color: var(--border-color);&quot;&gt;相手は勝手に不安要素を洗い出し、いろいろ想像してしまう&lt;br style=&quot;border-color: var(--border-color);&quot;&gt;不安感をあおることが出来る" link="https://qiita.com/" id="AjMyWbzP90O-28QECdVB-18">
                    <mxCell style="rounded=1;whiteSpace=wrap;html=1;shadow=0;labelBackgroundColor=none;strokeColor=none;strokeWidth=3;fillColor=#61c6ce;fontFamily=Helvetica;fontSize=14;fontColor=#FFFFFF;align=center;spacing=5;fontStyle=0;arcSize=7;perimeterSpacing=2;" parent="AjMyWbzP90O-28QECdVB-13" vertex="1">
                        <mxGeometry x="210" y="34" width="150" height="150" as="geometry"/>
                    </mxCell>
                </UserObject>
                <mxCell id="AjMyWbzP90O-28QECdVB-19" value="無言戦略" style="rounded=1;whiteSpace=wrap;html=1;shadow=0;labelBackgroundColor=none;strokeColor=none;strokeWidth=3;fillColor=#12aab5;fontFamily=Helvetica;fontSize=14;fontColor=#FFFFFF;align=center;spacing=5;fontStyle=1;arcSize=7;perimeterSpacing=2;" parent="AjMyWbzP90O-28QECdVB-13" vertex="1">
                    <mxGeometry x="210" y="209.9999999999999" width="150" height="60" as="geometry"/>
                </mxCell>
            </root>
        </mxGraphModel>
    </diagram>
</mxfile>